<mxfile host="Electron" modified="2025-02-14T17:00:40.728Z" agent="Mozilla/5.0 (Windows NT 10.0; Win64; x64) AppleWebKit/537.36 (KHTML, like Gecko) draw.io/24.0.4 Chrome/120.0.6099.109 Electron/28.1.0 Safari/537.36" etag="Wx8HcMEhIZM9o3K49Lk9" version="24.0.4" type="device">
  <diagram name="Page-1" id="JulvsSPHi9Jr_7Jm3-x4">
    <mxGraphModel dx="2029" dy="1346" grid="1" gridSize="10" guides="1" tooltips="1" connect="1" arrows="1" fold="1" page="1" pageScale="1" pageWidth="850" pageHeight="1100" math="0" shadow="0">
      <root>
        <mxCell id="0" />
        <mxCell id="1" parent="0" />
        <mxCell id="tFWXHqorwcY2-bB6QDaT-21" style="edgeStyle=orthogonalEdgeStyle;rounded=0;orthogonalLoop=1;jettySize=auto;html=1;exitX=0.5;exitY=1;exitDx=0;exitDy=0;entryX=0.75;entryY=0;entryDx=0;entryDy=0;startArrow=classic;startFill=1;endArrow=none;endFill=0;" edge="1" parent="1" source="tFWXHqorwcY2-bB6QDaT-4" target="tFWXHqorwcY2-bB6QDaT-15">
          <mxGeometry relative="1" as="geometry" />
        </mxCell>
        <mxCell id="tFWXHqorwcY2-bB6QDaT-4" value="&lt;b&gt;&lt;font style=&quot;font-size: 14px;&quot;&gt;ANSWER KEY / QUESTION DATABASE (VECTOR DB)&lt;/font&gt;&lt;/b&gt;&lt;div&gt;&lt;b&gt;&lt;font style=&quot;font-size: 14px;&quot;&gt;&lt;br&gt;&lt;/font&gt;&lt;/b&gt;&lt;/div&gt;&lt;div&gt;&lt;b&gt;&lt;font color=&quot;#ff0000&quot; style=&quot;font-size: 14px;&quot;&gt;? How to ensure we take candidate answer and&amp;nbsp;&lt;/font&gt;&lt;/b&gt;&lt;/div&gt;&lt;div&gt;&lt;b&gt;&lt;font color=&quot;#ff0000&quot; style=&quot;font-size: 14px;&quot;&gt;ensure it only goes against answer key to question 1&lt;/font&gt;&lt;/b&gt;&lt;/div&gt;" style="rounded=1;whiteSpace=wrap;html=1;verticalAlign=top;" vertex="1" parent="1">
          <mxGeometry x="1630" y="10" width="670" height="590" as="geometry" />
        </mxCell>
        <mxCell id="tFWXHqorwcY2-bB6QDaT-1" value="&lt;b&gt;QuestionID: question1&lt;/b&gt;&lt;div&gt;&lt;b&gt;VERSION 1&lt;/b&gt;&lt;div&gt;How does RAG AI work?&lt;/div&gt;&lt;div&gt;&lt;span style=&quot;background-color: initial;&quot;&gt;DateAdded: 02/02/1990&lt;/span&gt;&lt;br&gt;&lt;/div&gt;&lt;div&gt;Grading Criteria / Rubric:&lt;/div&gt;&lt;div&gt;Associated Conepts:&amp;nbsp; LLM, RAG, AI, etc&lt;/div&gt;&lt;div&gt;Accepted Solution Information:&amp;nbsp; &amp;lt;good answers&amp;gt;&lt;/div&gt;&lt;div&gt;Embedding: [12034912, 120349120934, 1041023491, etc...]&lt;/div&gt;&lt;div&gt;&lt;br&gt;&lt;/div&gt;&lt;/div&gt;" style="rounded=0;whiteSpace=wrap;html=1;align=left;horizontal=1;verticalAlign=top;" vertex="1" parent="1">
          <mxGeometry x="1660" y="140" width="280" height="120" as="geometry" />
        </mxCell>
        <mxCell id="tFWXHqorwcY2-bB6QDaT-2" value="&lt;b&gt;Question 2:&lt;/b&gt;&lt;div&gt;What is Observability in RAG?&lt;/div&gt;&lt;div&gt;&lt;br&gt;&lt;/div&gt;&lt;div&gt;&lt;div&gt;Grading Criteria:&lt;/div&gt;&lt;div&gt;Associated Conepts:&amp;nbsp; LLM, RAG, AI, etc&lt;/div&gt;&lt;/div&gt;&lt;div&gt;Accepted Solution Information:&amp;nbsp; &amp;lt;good answers&amp;gt;&lt;br&gt;&lt;/div&gt;&lt;div&gt;Embedding: [12034912, 120349120934, 1041023491, etc...]&lt;br&gt;&lt;/div&gt;" style="rounded=0;whiteSpace=wrap;html=1;align=left;horizontal=1;verticalAlign=top;" vertex="1" parent="1">
          <mxGeometry x="1660" y="280" width="280" height="120" as="geometry" />
        </mxCell>
        <mxCell id="tFWXHqorwcY2-bB6QDaT-3" value="&lt;b&gt;Question 3:&lt;/b&gt;&lt;div&gt;Explain tokenization in relation to AI&lt;/div&gt;&lt;div&gt;&lt;br&gt;&lt;/div&gt;&lt;div&gt;&lt;span style=&quot;background-color: initial;&quot;&gt;Grading Criteria:&lt;/span&gt;&lt;br&gt;&lt;/div&gt;&lt;div&gt;&lt;div&gt;Associated Conepts:&amp;nbsp; LLM, RAG, AI, etc&lt;/div&gt;&lt;/div&gt;&lt;div&gt;&lt;span style=&quot;background-color: initial;&quot;&gt;Accepted Solution Information:&amp;nbsp; &amp;lt;good answers&amp;gt;&lt;/span&gt;&lt;br&gt;&lt;/div&gt;&lt;div&gt;Embedding: [12034912, 120349120934, 1041023491, etc...]&lt;span style=&quot;background-color: initial;&quot;&gt;&lt;br&gt;&lt;/span&gt;&lt;/div&gt;" style="rounded=0;whiteSpace=wrap;html=1;align=left;horizontal=1;verticalAlign=top;" vertex="1" parent="1">
          <mxGeometry x="1660" y="410" width="280" height="120" as="geometry" />
        </mxCell>
        <mxCell id="tFWXHqorwcY2-bB6QDaT-18" style="edgeStyle=orthogonalEdgeStyle;rounded=0;orthogonalLoop=1;jettySize=auto;html=1;entryX=0;entryY=0.5;entryDx=0;entryDy=0;" edge="1" parent="1" source="tFWXHqorwcY2-bB6QDaT-5" target="tFWXHqorwcY2-bB6QDaT-10">
          <mxGeometry relative="1" as="geometry" />
        </mxCell>
        <mxCell id="tFWXHqorwcY2-bB6QDaT-5" value="&lt;b&gt;&lt;font style=&quot;font-size: 14px;&quot;&gt;CANDIDATE EXAM - TEST 1&lt;/font&gt;&lt;/b&gt;" style="rounded=1;whiteSpace=wrap;html=1;verticalAlign=top;" vertex="1" parent="1">
          <mxGeometry x="160" y="90" width="390" height="500" as="geometry" />
        </mxCell>
        <mxCell id="tFWXHqorwcY2-bB6QDaT-6" value="&lt;b&gt;Question 1 (questionID):&lt;/b&gt;&lt;div&gt;How does RAG AI work?&lt;/div&gt;&lt;div&gt;&lt;br&gt;&lt;/div&gt;&lt;div&gt;Candidate Answer: &amp;lt;blah blah&amp;gt;&lt;/div&gt;" style="rounded=0;whiteSpace=wrap;html=1;align=left;horizontal=1;verticalAlign=top;" vertex="1" parent="1">
          <mxGeometry x="215" y="150" width="280" height="120" as="geometry" />
        </mxCell>
        <mxCell id="tFWXHqorwcY2-bB6QDaT-7" value="&lt;b&gt;Question 2&amp;nbsp;&lt;/b&gt;&lt;b&gt;questionID&lt;/b&gt;&lt;b&gt;:&lt;/b&gt;&lt;div&gt;What is Observability in RAG?&lt;/div&gt;&lt;div&gt;&lt;br&gt;&lt;/div&gt;&lt;div&gt;Candidate Answer: &amp;lt;blah blah&amp;gt;&lt;br&gt;&lt;/div&gt;&lt;div&gt;&lt;div&gt;&lt;br&gt;&lt;/div&gt;&lt;/div&gt;" style="rounded=0;whiteSpace=wrap;html=1;align=left;horizontal=1;verticalAlign=top;" vertex="1" parent="1">
          <mxGeometry x="215" y="280" width="280" height="120" as="geometry" />
        </mxCell>
        <mxCell id="tFWXHqorwcY2-bB6QDaT-8" value="&lt;b&gt;Question 3:&lt;/b&gt;&lt;div&gt;Explain tokenization in relation to AI&lt;/div&gt;&lt;div&gt;&lt;br&gt;&lt;/div&gt;&lt;div&gt;Candidate Answer: &amp;lt;blah blah&amp;gt;&lt;br&gt;&lt;/div&gt;" style="rounded=0;whiteSpace=wrap;html=1;align=left;horizontal=1;verticalAlign=top;" vertex="1" parent="1">
          <mxGeometry x="215" y="410" width="280" height="120" as="geometry" />
        </mxCell>
        <mxCell id="tFWXHqorwcY2-bB6QDaT-20" style="edgeStyle=orthogonalEdgeStyle;rounded=0;orthogonalLoop=1;jettySize=auto;html=1;entryX=0.25;entryY=0;entryDx=0;entryDy=0;" edge="1" parent="1" source="tFWXHqorwcY2-bB6QDaT-9" target="tFWXHqorwcY2-bB6QDaT-15">
          <mxGeometry relative="1" as="geometry" />
        </mxCell>
        <mxCell id="tFWXHqorwcY2-bB6QDaT-9" value="&lt;b&gt;&lt;font style=&quot;font-size: 14px;&quot;&gt;NORMALIZED AI CANDIDATE EXAM DATA&lt;/font&gt;&lt;/b&gt;&lt;div&gt;&lt;b&gt;&lt;font style=&quot;font-size: 14px;&quot;&gt;&lt;br&gt;&lt;/font&gt;&lt;/b&gt;&lt;/div&gt;&lt;div&gt;&lt;b&gt;&lt;font style=&quot;font-size: 14px;&quot;&gt;**One record per question&lt;/font&gt;&lt;/b&gt;&lt;/div&gt;&lt;div style=&quot;text-align: left;&quot;&gt;&lt;b&gt;&lt;font style=&quot;font-size: 14px;&quot;&gt;&lt;br&gt;&lt;/font&gt;&lt;/b&gt;&lt;/div&gt;" style="rounded=1;whiteSpace=wrap;html=1;verticalAlign=top;" vertex="1" parent="1">
          <mxGeometry x="1170" y="90" width="390" height="500" as="geometry" />
        </mxCell>
        <mxCell id="tFWXHqorwcY2-bB6QDaT-19" style="edgeStyle=orthogonalEdgeStyle;rounded=0;orthogonalLoop=1;jettySize=auto;html=1;entryX=0;entryY=0.5;entryDx=0;entryDy=0;" edge="1" parent="1" source="tFWXHqorwcY2-bB6QDaT-10" target="tFWXHqorwcY2-bB6QDaT-9">
          <mxGeometry relative="1" as="geometry" />
        </mxCell>
        <mxCell id="tFWXHqorwcY2-bB6QDaT-10" value="&lt;div style=&quot;text-align: left;&quot;&gt;&lt;b style=&quot;background-color: initial;&quot;&gt;&amp;nbsp; &amp;nbsp; &amp;nbsp; &amp;nbsp; &amp;nbsp; &amp;nbsp; &amp;nbsp; &amp;nbsp; &amp;nbsp; &amp;nbsp; &amp;nbsp; &amp;nbsp; &amp;nbsp; DATA PIPELINE&lt;/b&gt;&lt;/div&gt;&lt;div&gt;&lt;ul&gt;&lt;li style=&quot;text-align: left;&quot;&gt;Take candidate exam&lt;/li&gt;&lt;li style=&quot;text-align: left;&quot;&gt;Format / Normalize data (split by question)&lt;/li&gt;&lt;/ul&gt;&lt;/div&gt;" style="shape=process;whiteSpace=wrap;html=1;backgroundOutline=1;verticalAlign=top;align=center;" vertex="1" parent="1">
          <mxGeometry x="650" y="245" width="360" height="190" as="geometry" />
        </mxCell>
        <mxCell id="tFWXHqorwcY2-bB6QDaT-11" value="&lt;b&gt;CandidateID: 12345&lt;/b&gt;&lt;div&gt;&lt;b&gt;examID: 9999999&lt;br&gt;&lt;/b&gt;&lt;div&gt;&lt;b&gt;QuestionID: question1&lt;/b&gt;&lt;/div&gt;&lt;div&gt;&lt;b&gt;Candidate Answer: &amp;lt;answer&amp;gt;&lt;/b&gt;&lt;/div&gt;&lt;div&gt;&lt;b&gt;&lt;br&gt;&lt;/b&gt;&lt;/div&gt;&lt;/div&gt;" style="rounded=0;whiteSpace=wrap;html=1;align=left;horizontal=1;verticalAlign=top;" vertex="1" parent="1">
          <mxGeometry x="1225" y="160" width="280" height="120" as="geometry" />
        </mxCell>
        <mxCell id="tFWXHqorwcY2-bB6QDaT-12" value="&lt;div&gt;&lt;div&gt;&lt;b&gt;CandidateID: 12345&lt;/b&gt;&lt;div&gt;&lt;b&gt;QuestionID: question2&lt;/b&gt;&lt;/div&gt;&lt;div&gt;&lt;b&gt;Candidate Answer: &amp;lt;answer&amp;gt;&lt;/b&gt;&lt;/div&gt;&lt;/div&gt;&lt;/div&gt;&lt;div&gt;&lt;b&gt;&lt;br&gt;&lt;/b&gt;&lt;/div&gt;" style="rounded=0;whiteSpace=wrap;html=1;align=left;horizontal=1;verticalAlign=top;" vertex="1" parent="1">
          <mxGeometry x="1225" y="290" width="280" height="120" as="geometry" />
        </mxCell>
        <mxCell id="tFWXHqorwcY2-bB6QDaT-13" value="&lt;div&gt;&lt;b&gt;CandidateID: 12345&lt;/b&gt;&lt;div&gt;&lt;b&gt;QuestionID: question3&lt;/b&gt;&lt;/div&gt;&lt;div&gt;&lt;b&gt;Candidate Answer: &amp;lt;answer&amp;gt;&lt;/b&gt;&lt;/div&gt;&lt;/div&gt;&lt;div&gt;&lt;b&gt;&lt;br&gt;&lt;/b&gt;&lt;/div&gt;" style="rounded=0;whiteSpace=wrap;html=1;align=left;horizontal=1;verticalAlign=top;" vertex="1" parent="1">
          <mxGeometry x="1225" y="420" width="280" height="120" as="geometry" />
        </mxCell>
        <mxCell id="tFWXHqorwcY2-bB6QDaT-23" style="edgeStyle=orthogonalEdgeStyle;rounded=0;orthogonalLoop=1;jettySize=auto;html=1;entryX=0;entryY=0.5;entryDx=0;entryDy=0;" edge="1" parent="1" source="tFWXHqorwcY2-bB6QDaT-15" target="tFWXHqorwcY2-bB6QDaT-22">
          <mxGeometry relative="1" as="geometry" />
        </mxCell>
        <mxCell id="tFWXHqorwcY2-bB6QDaT-15" value="&lt;div style=&quot;text-align: left;&quot;&gt;&lt;b style=&quot;background-color: initial;&quot;&gt;&amp;nbsp; &amp;nbsp; &amp;nbsp; &amp;nbsp; &amp;nbsp; &amp;nbsp; &amp;nbsp; &amp;nbsp; &amp;nbsp; &amp;nbsp; &amp;nbsp; &amp;nbsp; &amp;nbsp; AI ANALYSIS PIPELINE&lt;/b&gt;&lt;/div&gt;&lt;div&gt;&lt;ul&gt;&lt;li style=&quot;text-align: left;&quot;&gt;Take Normalized AI Candidate Exam Data&lt;/li&gt;&lt;li style=&quot;text-align: left;&quot;&gt;Create embeddings for the candidate answer&lt;/li&gt;&lt;li style=&quot;text-align: left;&quot;&gt;Send query to indexer&lt;/li&gt;&lt;li style=&quot;text-align: left;&quot;&gt;indexer returns ranked similarity responses&lt;/li&gt;&lt;ul&gt;&lt;li style=&quot;text-align: left;&quot;&gt;Response:&amp;nbsp;&lt;/li&gt;&lt;li style=&quot;text-align: left;&quot;&gt;Embedding: [12034912, 120349120934, 1041023491]&lt;br&gt;&lt;/li&gt;&lt;li style=&quot;text-align: left;&quot;&gt;Similarity / Accuracy: 90%&lt;/li&gt;&lt;/ul&gt;&lt;/ul&gt;&lt;div style=&quot;text-align: left;&quot;&gt;&lt;br&gt;&lt;/div&gt;&lt;/div&gt;" style="shape=process;whiteSpace=wrap;html=1;backgroundOutline=1;verticalAlign=top;align=center;" vertex="1" parent="1">
          <mxGeometry x="1400" y="710" width="360" height="280" as="geometry" />
        </mxCell>
        <mxCell id="tFWXHqorwcY2-bB6QDaT-25" style="edgeStyle=orthogonalEdgeStyle;rounded=0;orthogonalLoop=1;jettySize=auto;html=1;entryX=0.5;entryY=1;entryDx=0;entryDy=0;" edge="1" parent="1" source="tFWXHqorwcY2-bB6QDaT-22" target="tFWXHqorwcY2-bB6QDaT-24">
          <mxGeometry relative="1" as="geometry" />
        </mxCell>
        <mxCell id="tFWXHqorwcY2-bB6QDaT-22" value="&lt;b&gt;LLM PROCESSING&lt;/b&gt;&lt;div&gt;&lt;b&gt;&lt;br&gt;&lt;/b&gt;&lt;/div&gt;&lt;div&gt;&lt;ul&gt;&lt;li style=&quot;text-align: left;&quot;&gt;Take indexer response&amp;nbsp;&lt;/li&gt;&lt;li style=&quot;text-align: left;&quot;&gt;Send prompt and response to LLM to create human readable answer&lt;/li&gt;&lt;ul&gt;&lt;li style=&quot;text-align: left;&quot;&gt;PROMPT:&lt;/li&gt;&lt;li style=&quot;text-align: left;&quot;&gt;Using &amp;lt;questionID, Associated Concepts, Grading Criteria, Acceptable Answers, etc.&amp;gt;&lt;/li&gt;&lt;li style=&quot;text-align: left;&quot;&gt;Given the candidates &amp;lt;answer&amp;gt;, provide feedback on accuracy, correctness, and understanding of their answer to the &amp;lt;questionID&amp;gt;.&lt;/li&gt;&lt;/ul&gt;&lt;li style=&quot;text-align: left;&quot;&gt;Save answer to AI Graded Database for review by an expert&lt;/li&gt;&lt;/ul&gt;&lt;/div&gt;" style="shape=process;whiteSpace=wrap;html=1;backgroundOutline=1;verticalAlign=top;align=center;" vertex="1" parent="1">
          <mxGeometry x="1930" y="710" width="360" height="280" as="geometry" />
        </mxCell>
        <mxCell id="tFWXHqorwcY2-bB6QDaT-29" style="edgeStyle=orthogonalEdgeStyle;rounded=0;orthogonalLoop=1;jettySize=auto;html=1;entryX=0;entryY=0.5;entryDx=0;entryDy=0;" edge="1" parent="1" source="tFWXHqorwcY2-bB6QDaT-24" target="tFWXHqorwcY2-bB6QDaT-30">
          <mxGeometry relative="1" as="geometry">
            <mxPoint x="2870" y="340" as="targetPoint" />
          </mxGeometry>
        </mxCell>
        <mxCell id="tFWXHqorwcY2-bB6QDaT-24" value="&lt;b&gt;&lt;font style=&quot;font-size: 14px;&quot;&gt;AI GRADED CANDIDATE DATABASE&lt;/font&gt;&lt;/b&gt;&lt;div&gt;&lt;b&gt;&lt;font style=&quot;font-size: 14px;&quot;&gt;&lt;br&gt;&lt;/font&gt;&lt;/b&gt;&lt;/div&gt;&lt;div&gt;&lt;b&gt;&lt;font style=&quot;font-size: 14px;&quot;&gt;&lt;br&gt;&lt;/font&gt;&lt;/b&gt;&lt;/div&gt;&lt;div style=&quot;text-align: left;&quot;&gt;&lt;b&gt;&lt;font style=&quot;font-size: 14px;&quot;&gt;&lt;br&gt;&lt;/font&gt;&lt;/b&gt;&lt;/div&gt;" style="rounded=1;whiteSpace=wrap;html=1;verticalAlign=top;" vertex="1" parent="1">
          <mxGeometry x="2440" y="90" width="390" height="500" as="geometry" />
        </mxCell>
        <mxCell id="tFWXHqorwcY2-bB6QDaT-26" value="&lt;b&gt;CandidateID: 12345&lt;/b&gt;&lt;div&gt;&lt;b&gt;&lt;br&gt;&lt;/b&gt;&lt;/div&gt;&lt;div&gt;&lt;b&gt;Response records for examID: 999999&lt;/b&gt;&lt;/div&gt;&lt;div&gt;&lt;b&gt;&amp;lt;question1 data: include accuracy information&lt;/b&gt;&lt;/div&gt;&lt;div&gt;&lt;b&gt;&amp;lt;question2 data&amp;gt;&lt;/b&gt;&lt;/div&gt;&lt;div&gt;&lt;b&gt;&amp;lt;question3 data&amp;gt;&lt;/b&gt;&lt;/div&gt;" style="rounded=0;whiteSpace=wrap;html=1;align=left;horizontal=1;verticalAlign=top;" vertex="1" parent="1">
          <mxGeometry x="2490" y="160" width="280" height="120" as="geometry" />
        </mxCell>
        <mxCell id="tFWXHqorwcY2-bB6QDaT-36" style="edgeStyle=orthogonalEdgeStyle;rounded=0;orthogonalLoop=1;jettySize=auto;html=1;entryX=0;entryY=0.5;entryDx=0;entryDy=0;" edge="1" parent="1" source="tFWXHqorwcY2-bB6QDaT-30" target="tFWXHqorwcY2-bB6QDaT-35">
          <mxGeometry relative="1" as="geometry" />
        </mxCell>
        <mxCell id="tFWXHqorwcY2-bB6QDaT-30" value="&lt;b&gt;EXPERT REVIEW&lt;/b&gt;" style="shape=process;whiteSpace=wrap;html=1;backgroundOutline=1;verticalAlign=top;align=center;" vertex="1" parent="1">
          <mxGeometry x="2920" y="200" width="430" height="280" as="geometry" />
        </mxCell>
        <mxCell id="tFWXHqorwcY2-bB6QDaT-31" value="&lt;b&gt;Question 1: question1&lt;/b&gt;&lt;div&gt;&lt;b&gt;VERSION 2&lt;/b&gt;&lt;div&gt;How does RAG AI work?&lt;/div&gt;&lt;div&gt;&lt;span style=&quot;background-color: initial;&quot;&gt;DateAdded: 02/02/1990&lt;/span&gt;&lt;br&gt;&lt;/div&gt;&lt;div&gt;&lt;span style=&quot;background-color: initial;&quot;&gt;Grading Criteria / Rubric:&lt;/span&gt;&lt;/div&gt;&lt;div&gt;&lt;span style=&quot;background-color: initial;&quot;&gt;Associated Conepts:&amp;nbsp; LLM, RAG, AI, etc&lt;/span&gt;&lt;br&gt;&lt;/div&gt;&lt;div&gt;Accepted Solution Information:&amp;nbsp; &amp;lt;good answers&amp;gt;&lt;/div&gt;&lt;div&gt;Embedding: [12034912, 120349120934, 1041023491, etc...]&lt;/div&gt;&lt;div&gt;&lt;br&gt;&lt;/div&gt;&lt;/div&gt;" style="rounded=0;whiteSpace=wrap;html=1;align=left;horizontal=1;verticalAlign=top;" vertex="1" parent="1">
          <mxGeometry x="1970" y="140" width="280" height="120" as="geometry" />
        </mxCell>
        <mxCell id="tFWXHqorwcY2-bB6QDaT-32" value="&lt;b&gt;CandidateID: 56789&lt;/b&gt;&lt;div&gt;&lt;b&gt;&lt;br&gt;&lt;/b&gt;&lt;/div&gt;&lt;div&gt;&lt;b&gt;Response records:&lt;/b&gt;&lt;/div&gt;&lt;div&gt;&lt;b&gt;&amp;lt;question1 data&amp;gt;&lt;/b&gt;&lt;/div&gt;&lt;div&gt;&lt;b&gt;&amp;lt;question2 data&amp;gt;&lt;/b&gt;&lt;/div&gt;&lt;div&gt;&lt;b&gt;&amp;lt;question3 data&amp;gt;&lt;/b&gt;&lt;/div&gt;" style="rounded=0;whiteSpace=wrap;html=1;align=left;horizontal=1;verticalAlign=top;" vertex="1" parent="1">
          <mxGeometry x="2495" y="310" width="280" height="120" as="geometry" />
        </mxCell>
        <mxCell id="tFWXHqorwcY2-bB6QDaT-33" value="&lt;b&gt;CandidateID: 99999&lt;/b&gt;&lt;div&gt;&lt;b&gt;&lt;br&gt;&lt;/b&gt;&lt;/div&gt;&lt;div&gt;&lt;b&gt;Response records:&lt;/b&gt;&lt;/div&gt;&lt;div&gt;&lt;b&gt;&amp;lt;question1 data&amp;gt;&lt;/b&gt;&lt;/div&gt;&lt;div&gt;&lt;b&gt;&amp;lt;question2 data&amp;gt;&lt;/b&gt;&lt;/div&gt;&lt;div&gt;&lt;b&gt;&amp;lt;question3 data&amp;gt;&lt;/b&gt;&lt;/div&gt;" style="rounded=0;whiteSpace=wrap;html=1;align=left;horizontal=1;verticalAlign=top;" vertex="1" parent="1">
          <mxGeometry x="2495" y="450" width="280" height="120" as="geometry" />
        </mxCell>
        <mxCell id="tFWXHqorwcY2-bB6QDaT-41" style="edgeStyle=orthogonalEdgeStyle;rounded=0;orthogonalLoop=1;jettySize=auto;html=1;entryX=0;entryY=0.5;entryDx=0;entryDy=0;" edge="1" parent="1" source="tFWXHqorwcY2-bB6QDaT-35" target="tFWXHqorwcY2-bB6QDaT-40">
          <mxGeometry relative="1" as="geometry" />
        </mxCell>
        <mxCell id="tFWXHqorwcY2-bB6QDaT-35" value="&lt;b&gt;&lt;font style=&quot;font-size: 14px;&quot;&gt;EXPERT GRADED EXAM DATABASE&lt;/font&gt;&lt;/b&gt;&lt;div&gt;&lt;b&gt;&lt;font style=&quot;font-size: 14px;&quot;&gt;&lt;br&gt;&lt;/font&gt;&lt;/b&gt;&lt;/div&gt;&lt;div&gt;&lt;b&gt;&lt;font style=&quot;font-size: 14px;&quot;&gt;&lt;br&gt;&lt;/font&gt;&lt;/b&gt;&lt;/div&gt;&lt;div style=&quot;text-align: left;&quot;&gt;&lt;b&gt;&lt;font style=&quot;font-size: 14px;&quot;&gt;&lt;br&gt;&lt;/font&gt;&lt;/b&gt;&lt;/div&gt;" style="rounded=1;whiteSpace=wrap;html=1;verticalAlign=top;" vertex="1" parent="1">
          <mxGeometry x="3450" y="90" width="390" height="500" as="geometry" />
        </mxCell>
        <mxCell id="tFWXHqorwcY2-bB6QDaT-37" value="&lt;b&gt;CandidateID: 12345&lt;/b&gt;&lt;div&gt;&lt;b&gt;&lt;br&gt;&lt;/b&gt;&lt;/div&gt;&lt;div&gt;&lt;b&gt;Response records for examID: 999999&lt;/b&gt;&lt;/div&gt;&lt;div&gt;&lt;b&gt;&amp;lt;question1 data&amp;gt;&lt;/b&gt;&lt;/div&gt;&lt;div&gt;&lt;b&gt;**Expert can add their own feedback**&lt;/b&gt;&lt;/div&gt;&lt;div&gt;&lt;b&gt;&lt;br&gt;&lt;/b&gt;&lt;/div&gt;&lt;div&gt;&lt;b&gt;&amp;lt;question2 data&amp;gt;&lt;/b&gt;&lt;/div&gt;&lt;div&gt;&lt;b&gt;**Expert can add their own feedback**&lt;/b&gt;&lt;b&gt;&lt;br&gt;&lt;/b&gt;&lt;/div&gt;&lt;div&gt;&lt;b&gt;&lt;br&gt;&lt;/b&gt;&lt;/div&gt;&lt;div&gt;&lt;b&gt;&amp;lt;question3 data&amp;gt;&lt;/b&gt;&lt;/div&gt;&lt;div&gt;&lt;b&gt;**Expert can add their own feedback**&lt;/b&gt;&lt;b&gt;&lt;br&gt;&lt;/b&gt;&lt;/div&gt;" style="rounded=0;whiteSpace=wrap;html=1;align=left;horizontal=1;verticalAlign=top;" vertex="1" parent="1">
          <mxGeometry x="2990" y="245" width="280" height="180" as="geometry" />
        </mxCell>
        <mxCell id="tFWXHqorwcY2-bB6QDaT-38" value="&lt;b&gt;CandidateID: 12345&lt;/b&gt;&lt;div&gt;&lt;b&gt;&lt;br&gt;&lt;/b&gt;&lt;/div&gt;&lt;div&gt;&lt;b&gt;Response records for examID: 999999&lt;/b&gt;&lt;/div&gt;&lt;div&gt;&lt;b&gt;&amp;lt;question1 data&amp;gt;&lt;/b&gt;&lt;/div&gt;&lt;div&gt;&lt;b&gt;&amp;lt;finalized Candidate Feedback&amp;gt;&lt;/b&gt;&lt;/div&gt;&lt;div&gt;&lt;b&gt;&lt;br&gt;&lt;/b&gt;&lt;/div&gt;&lt;div&gt;&lt;b&gt;&amp;lt;question2 data&amp;gt;&lt;/b&gt;&lt;/div&gt;&lt;div&gt;&lt;b&gt;&amp;lt;finalized Candidate Feedback&amp;gt;&lt;/b&gt;&lt;b&gt;&lt;br&gt;&lt;/b&gt;&lt;/div&gt;&lt;div&gt;&lt;b&gt;&lt;br&gt;&lt;/b&gt;&lt;/div&gt;&lt;div&gt;&lt;b&gt;&amp;lt;question3 data&amp;gt;&lt;/b&gt;&lt;/div&gt;&lt;div&gt;&lt;b&gt;&amp;lt;finalized Candidate Feedback&amp;gt;&lt;/b&gt;&lt;b&gt;&lt;br&gt;&lt;/b&gt;&lt;/div&gt;" style="rounded=0;whiteSpace=wrap;html=1;align=left;horizontal=1;verticalAlign=top;" vertex="1" parent="1">
          <mxGeometry x="3520" y="140" width="280" height="180" as="geometry" />
        </mxCell>
        <mxCell id="tFWXHqorwcY2-bB6QDaT-40" value="&lt;b&gt;CANDIDATE EMAIL SERVICE:&lt;/b&gt;&lt;div&gt;&lt;b&gt;GENERATION / FORMATTING / SENDING OF EMAILS&lt;/b&gt;&lt;/div&gt;&lt;div&gt;&lt;ul&gt;&lt;li style=&quot;text-align: left;&quot;&gt;&lt;b&gt;Take Expert Graded Exam record&lt;/b&gt;&lt;/li&gt;&lt;li style=&quot;text-align: left;&quot;&gt;&lt;b&gt;Apply any formatting needed&lt;/b&gt;&lt;/li&gt;&lt;li style=&quot;text-align: left;&quot;&gt;&lt;b&gt;Send to candidateID&#39;s email address&lt;/b&gt;&lt;/li&gt;&lt;/ul&gt;&lt;/div&gt;" style="shape=process;whiteSpace=wrap;html=1;backgroundOutline=1;verticalAlign=top;align=center;" vertex="1" parent="1">
          <mxGeometry x="4010" y="200" width="430" height="280" as="geometry" />
        </mxCell>
        <mxCell id="tFWXHqorwcY2-bB6QDaT-42" value="Actor" style="shape=umlActor;verticalLabelPosition=bottom;verticalAlign=top;html=1;outlineConnect=0;" vertex="1" parent="1">
          <mxGeometry x="4660" y="220" width="150" height="240" as="geometry" />
        </mxCell>
        <mxCell id="tFWXHqorwcY2-bB6QDaT-43" style="edgeStyle=orthogonalEdgeStyle;rounded=0;orthogonalLoop=1;jettySize=auto;html=1;entryX=0.5;entryY=0.5;entryDx=0;entryDy=0;entryPerimeter=0;" edge="1" parent="1" source="tFWXHqorwcY2-bB6QDaT-40" target="tFWXHqorwcY2-bB6QDaT-42">
          <mxGeometry relative="1" as="geometry" />
        </mxCell>
        <mxCell id="tFWXHqorwcY2-bB6QDaT-44" value="&lt;b&gt;&lt;font style=&quot;font-size: 18px;&quot;&gt;EMAIL&lt;/font&gt;&lt;/b&gt;" style="edgeLabel;html=1;align=center;verticalAlign=middle;resizable=0;points=[];" vertex="1" connectable="0" parent="tFWXHqorwcY2-bB6QDaT-43">
          <mxGeometry x="0.0147" y="-5" relative="1" as="geometry">
            <mxPoint x="-9" y="-25" as="offset" />
          </mxGeometry>
        </mxCell>
      </root>
    </mxGraphModel>
  </diagram>
</mxfile>
